# xmcd
#
# Track frame offsets: 
#        183
#        11573
#        21778
#        33108
#        45250
#        56305
#        67773
#        79265
#        90665
#        101798
#        113820
#        127215
#        134260
#        142395
#        155300
#        166640
#        178198
#        188565
#        198485
#        210503
#        221330
#        231593
#        241955
#        251570
#        261678
#        273488
#        283283
#        294848
#        305655
#
# Disc length: 4229 seconds
#
# Revision: 1
# Processed by: cddbd v1.5.2PL0 Copyright (c) Steve Scherf et al.
# Submitted via: ExactAudioCopyFreeDBPlugin 1.0
#
DISCID=a910831d
DTITLE=Various Artist - Hi Records:  The Early Years, Volumes 1+2
DYEAR=1999
DGENRE=Rhythm and Blues
TTITLE0=Carl McVoy - Tootsie
TTITLE1=Carl McVoy - You Are My Sunshine
TTITLE2=Carl McVoy - Little John's Gone
TTITLE3=Carl McVoy - Daydreamin'
TTITLE4=The Charmettes - Skating in the Blue Light
TTITLE5=Joe Fuller - You Made a Hit
TTITLE6=Kimball Coburn - Please Please
TTITLE7=Kimball Coburn - Teenage Love
TTITLE8=Jay B. Loyd - I'm So Lonely
TTITLE9=Jay B. Loyd - I'll Be Alright
TTITLE10=Gene Simmons - Goin' Back to Memphis
TTITLE11=Tommy Tucker - Lovin' Lil
TTITLE12=Tommy Tucker - A Man in Love
TTITLE13=Tommy Tucker - Miller's Cave
TTITLE14=Tommy Tucker - The Stranger
TTITLE15=Teddy Reddell - Pipeliner
TTITLE16=Teddy Reddell - I Want to Hold You
TTITLE17=Bill Reeder - There Was a Time
TTITLE18=Bill Reeder - Till I Waltz Again with You
TTITLE19=Bill Reeder - Judy
TTITLE20=Bill Reeder - Secret Love
TTITLE21=Darlene Wallace - 26 Miles to Joliet
TTITLE22=Bill Black Combo - Smokie (Part 2)
TTITLE23=Gene Simmons - Your True Love
TTITLE24=Gene Simmons - Teddy Bear
TTITLE25=Gene Simmons - The Shape You Left Me In
TTITLE26=Gene Simmons - No Other Guy
TTITLE27=Ace Cannon - Tuff
TTITLE28=Gene Simmons - Haunted House
EXTD=
EXTT0=
EXTT1=
EXTT2=
EXTT3=
EXTT4=
EXTT5=
EXTT6=
EXTT7=
EXTT8=
EXTT9=
EXTT10=
EXTT11=
EXTT12=
EXTT13=
EXTT14=
EXTT15=
EXTT16=
EXTT17=
EXTT18=
EXTT19=
EXTT20=
EXTT21=
EXTT22=
EXTT23=
EXTT24=
EXTT25=
EXTT26=
EXTT27=
EXTT28=
PLAYORDER=
